{"title":"Taking Lives 2004 BDrip English Klam","uid":6459757,"size":1487090323,"categoryP":"video","categoryS":"movies","magnet":"?xt=urn:btih:fe73dac332f4b42dfba045712cd42c4dc0c87e23&amp;dn=Taking+Lives+2004+BDrip+English+Klam&amp;tr=udp%3A%2F%2Ftracker.openbittorrent.com%3A80&amp;tr=udp%3A%2F%2Fopen.demonii.com%3A1337&amp;tr=udp%3A%2F%2Ftracker.coppersurfer.tk%3A6969&amp;tr=udp%3A%2F%2Fexodus.desync.com%3A6969","seeders":1,"leechers":0,"uploader":"Klambake","files":-1,"time":1307718379,"description":"With: Angelina Jolie, Ethan Hawke en Kiefer Sutherland\n\nIlleana Scott is een FBI-profiler die de reguliere methodes naast zich neerlegt en puur op haar instinct vertrouwt. Wanneer Montreal overspoeld wordt door een golf van moorden en de rechercheurs met de handen in het haar zitten...\n\nAn FBI profiler is called in by French Canadian police to catch a serial killer who takes on the identity of each new victim. \n\n------------------ Dutch Friends ------------------\n\nYou can find my Friends at: http://www.Film-Test.nl \n                    \n------ They got my dutchs subs ---- and more ------\n\nGeneral:\n\nComplete name                    : Taking Lives\\Taking Lives.avi\nFormat                           : AVI\nFormat/Info                      : Audio Video Interleave\nFile size                        : 1.38 GiB\nDuration                         : 1h 52mn\nOverall bit rate                 : 1 765 Kbps\nWriting application              : VirtualDubMod 1.5.4.1\nWriting library                  : VirtualDubMod\n\nVideo:\n\nFormat                           : MPEG-4 Visual\nFormat profile                   : Simple@L3\nFormat settings, BVOP            : No\nFormat settings, QPel            : No\nFormat settings, GMC             : No warppoints\nFormat settings, Matrix          : Default (H.263)\nCodec ID                         : XVID\nCodec ID/Hint                    : XviD\nDuration                         : 1h 52mn\nBit rate                         : 1 321 Kbps\nWidth                            : 720 pixels\nHeight                           : 304 pixels\nDisplay aspect ratio             : 2.35:1\nFrame rate                       : 23.976 fps\nColor space                      : YUV\nChroma subsampling               : 4:2:0\nBit depth                        : 8 bits\nScan type                        : Progressive\nBits/(Pixel*Frame)               : 0.252\nStream size                      : 1.04 GiB (75%)\nWriting library                  : XviD 1.2.1\n\nAudio:\n\nFormat                           : AC-3\nFormat/Info                      : Audio Coding 3\nMode extension                   : CM (complete main)\nCodec ID                         : 2000\nDuration                         : 1h 49mn\nBit rate mode                    : Constant\nBit rate                         : 448 Kbps\nChannel(s)                       : 6 channels\nChannel positions                : Front: L C R, Side: L R, LFE\nSampling rate                    : 48.0 KHz\nBit depth                        : 16 bits\nVideo delay                      : 16ms\nStream size                      : 351 MiB (25%)\nAlignment                        : Split accross interleaves\nInterleave, duration             : 86 ms (2.05 video frames)\nInterleave, preload duration     : 500 ms\nLanguage                         : English\n\n\n\n\n","torrent":{"xt":"urn:btih:fe73dac332f4b42dfba045712cd42c4dc0c87e23","amp;dn":"Taking+Lives+2004+BDrip+English+Klam","amp;tr":["udp%3A%2F%2Ftracker.openbittorrent.com%3A80","udp%3A%2F%2Fopen.demonii.com%3A1337","udp%3A%2F%2Ftracker.coppersurfer.tk%3A6969","udp%3A%2F%2Fexodus.desync.com%3A6969"],"infoHash":"fe73dac332f4b42dfba045712cd42c4dc0c87e23","infoHashBuffer":{"type":"Buffer","data":[254,115,218,195,50,244,180,45,251,160,69,113,44,212,44,77,192,200,126,35]},"announce":[],"urlList":[]}}